<svg width="320" height="80" viewBox="0 0 320 80" fill="none" xmlns="http://www.w3.org/2000/svg">
  <!-- Shield -->
  <path d="M34 4C34 4 12 12 10 14C10 14 8 16 8 22C8 38 14 58 34 68C54 58 60 38 60 22C60 16 58 14 58 14C56 12 34 4 34 4Z" fill="#4A90D9"/>
  <path d="M34 8C34 8 15 15 13.5 16.5C13.5 16.5 12 18 12 23C12 37 17.5 55 34 64C50.5 55 56 37 56 23C56 18 54.5 16.5 54.5 16.5C53 15 34 8 34 8Z" fill="#5A9FE8"/>
  <path d="M34 13C34 13 18 19.5 17 20.5C17 20.5 16 22 16 26C16 38 20 53 34 61C48 53 52 38 52 26C52 22 51 20.5 51 20.5C50 19.5 34 13 34 13Z" fill="#4A90D9"/>
  <path d="M34 13C34 13 18 19.5 17 20.5C17 20.5 16 22 16 26C16 26 16 23 18 21.5C20 20 34 14.5 34 14.5V13Z" fill="white" opacity="0.15"/>
  <!-- Checkmark -->
  <polyline points="22,38 29,47 47,28" stroke="white" stroke-width="3.5" stroke-linecap="round" stroke-linejoin="round" fill="none"/>
  <!-- CAROLINA -->
  <text x="78" y="32" font-family="Georgia, 'Times New Roman', serif" font-size="28" font-weight="700" fill="white" letter-spacing="2">CAROLINA</text>
  <!-- Compliance Solutions -->
  <text x="79" y="50" font-family="Arial, Helvetica, sans-serif" font-size="13" font-weight="500" fill="#7BAFD4" letter-spacing="3">COMPLIANCE SOLUTIONS</text>
  <!-- Divider line -->
  <line x1="79" y1="58" x2="310" y2="58" stroke="#2A5580" stroke-width="0.75"/>
  <!-- Tagline -->
  <text x="79" y="72" font-family="Georgia, 'Times New Roman', serif" font-size="11" font-style="italic" fill="#7BAFD4" letter-spacing="0.5">Less chasing. More building.</text>
</svg>
